<svg width="141" height="161" viewBox="0 0 141 161" fill="none" xmlns="http://www.w3.org/2000/svg">
<rect x="29" y="66" width="112" height="85" fill="black"/>
<path d="M0 10.0625V150.938H141V10.0625H0ZM76.7317 119.932C76.7317 133.643 68.6745 139.9 56.935 139.9C46.3286 139.9 40.1913 134.429 37.044 127.794L47.8393 121.285C49.9165 124.964 51.8049 128.077 56.3685 128.077C60.7118 128.077 63.4815 126.379 63.4815 119.744V74.7455H76.7317V119.932V119.932ZM108.079 139.9C95.773 139.9 87.8103 134.051 83.9391 126.379L94.7344 120.153C97.567 124.775 101.281 128.203 107.796 128.203C113.272 128.203 116.797 125.467 116.797 121.662C116.797 117.134 113.209 115.53 107.135 112.857L103.83 111.442C94.2623 107.386 87.9362 102.26 87.9362 91.4744C87.9362 81.5377 95.5212 73.9908 107.324 73.9908C115.758 73.9908 121.801 76.9152 126.145 84.5879L115.821 91.1914C113.555 87.135 111.1 85.5312 107.292 85.5312C103.421 85.5312 100.966 87.984 100.966 91.1914C100.966 95.1535 103.421 96.7572 109.118 99.2414L112.422 100.656C123.69 105.468 130.016 110.404 130.016 121.473C130.016 133.36 120.637 139.9 108.079 139.9V139.9Z" fill="#EDD718"/>
</svg>
