<svg width="96" height="109" viewBox="0 0 96 109" fill="none" xmlns="http://www.w3.org/2000/svg">
<g clip-path="url(#clip0)">
<rect x="29" y="13" width="13" height="13" fill="white"/>
<rect x="54" y="83" width="13" height="13" fill="white"/>
<path d="M94.2429 42.6846C92.5929 36.1063 89.4643 31.1459 82.8 31.1459H74.2071V41.2369C74.2071 49.0713 67.5214 55.6709 59.8929 55.6709H37.0071C30.75 55.6709 25.5643 60.9932 25.5643 67.2309V88.9031C25.5643 95.077 30.9643 98.6961 37.0071 100.463C44.25 102.571 51.2143 102.954 59.8929 100.463C65.6571 98.8025 71.3357 95.4602 71.3357 88.9031V80.2385H48.4714V77.3432H82.8C89.4643 77.3432 91.9286 72.7234 94.2429 65.8045C96.6429 58.6727 96.5357 51.8176 94.2429 42.6846ZM61.3286 86.0078C63.7072 86.0078 65.6357 87.9451 65.6357 90.3295C65.6357 92.7352 63.7072 94.6725 61.3286 94.6725C58.9714 94.6725 57.0214 92.7139 57.0214 90.3295C57.0429 87.9238 58.9714 86.0078 61.3286 86.0078ZM35.9571 52.8182H58.8429C65.2071 52.8182 70.2857 47.6024 70.2857 41.2582V19.5647C70.2857 13.3908 65.0571 8.77109 58.8429 7.72793C51.1714 6.47188 42.8357 6.53574 35.9571 7.74922C26.2714 9.45234 24.5143 13.0076 24.5143 19.5859V28.2506H47.4214V31.1459H15.9214C9.25714 31.1459 3.42857 35.127 1.60714 42.6846C-0.492857 51.3492 -0.578571 56.7566 1.60714 65.8045C3.23571 72.5318 7.11429 77.3432 13.7786 77.3432H21.6429V66.9541C21.6429 59.4391 28.1786 52.8182 35.9571 52.8182ZM34.5214 22.46C32.1429 22.46 30.2143 20.5227 30.2143 18.1383C30.2357 15.7326 32.1429 13.7953 34.5214 13.7953C36.8786 13.7953 38.8286 15.7539 38.8286 18.1383C38.8286 20.5227 36.9 22.46 34.5214 22.46Z" fill="#346C99"/>
<g clip-path="url(#clip1)">
<path d="M94.2429 42.6846C92.5929 36.1063 89.4643 31.1459 82.8 31.1459H74.2071V41.2369C74.2071 49.0713 67.5214 55.6709 59.8929 55.6709H37.0071C30.75 55.6709 25.5643 60.9932 25.5643 67.2309V88.9031C25.5643 95.077 30.9643 98.6961 37.0071 100.463C44.25 102.571 51.2143 102.954 59.8929 100.463C65.6571 98.8025 71.3357 95.4602 71.3357 88.9031V80.2385H48.4714V77.3432H82.8C89.4643 77.3432 91.9286 72.7235 94.2429 65.8045C96.6429 58.6727 96.5357 51.8176 94.2429 42.6846ZM61.3286 86.0078C63.7071 86.0078 65.6357 87.9451 65.6357 90.3295C65.6357 92.7352 63.7071 94.6725 61.3286 94.6725C58.9714 94.6725 57.0214 92.7139 57.0214 90.3295C57.0429 87.9238 58.9714 86.0078 61.3286 86.0078Z" fill="#FFCD3A"/>
</g>
</g>
<defs>
<clipPath id="clip0">
<rect width="96" height="109" fill="white"/>
</clipPath>
<clipPath id="clip1">
<rect width="96" height="109" fill="white"/>
</clipPath>
</defs>
</svg>
